<svg width="18" height="16" viewBox="0 0 18 16" fill="none" xmlns="http://www.w3.org/2000/svg">
<path d="M14 0.708496H4C1.985 0.708496 0.875 1.8185 0.875 3.8335V12.1668C0.875 14.1818 1.985 15.2918 4 15.2918H14C16.015 15.2918 17.125 14.1818 17.125 12.1668V3.8335C17.125 1.8185 16.015 0.708496 14 0.708496ZM15.875 12.1668C15.875 13.481 15.3142 14.0418 14 14.0418H4C2.68583 14.0418 2.125 13.481 2.125 12.1668V8.6252H5.66667C5.87583 8.6252 6.07085 8.521 6.18669 8.3468L7.14412 6.91007L8.40664 10.6977C8.48247 10.9235 8.68002 11.0876 8.91669 11.1193C8.94419 11.1234 8.97167 11.1252 9 11.1252C9.2075 11.1252 9.4025 11.0218 9.52 10.8468L11.0008 8.6252H12.3333C12.6783 8.6252 12.9583 8.3452 12.9583 8.0002C12.9583 7.65516 12.6783 7.37516 12.3333 7.37516H10.6667C10.4575 7.37516 10.2625 7.47932 10.1466 7.65348L9.1892 9.0903L7.9267 5.30261C7.85086 5.07678 7.65331 4.91273 7.41665 4.88106C7.17831 4.84606 6.94665 4.95432 6.81331 5.15348L5.3325 7.37516H2.125V3.8335C2.125 2.51933 2.68583 1.9585 4 1.9585H14C15.3142 1.9585 15.875 2.51933 15.875 3.8335V12.1668Z" fill="#999999"/>
</svg>
