<svg width="18" height="18" viewBox="0 0 18 18" fill="none" xmlns="http://www.w3.org/2000/svg">
<path d="M14 2.125H12.9583V1.5C12.9583 1.155 12.6783 0.875 12.3333 0.875C11.9883 0.875 11.7083 1.155 11.7083 1.5V2.125H6.29167V1.5C6.29167 1.155 6.01167 0.875 5.66667 0.875C5.32167 0.875 5.04167 1.155 5.04167 1.5V2.125H4C1.985 2.125 0.875 3.235 0.875 5.25V14C0.875 16.015 1.985 17.125 4 17.125H14C16.015 17.125 17.125 16.015 17.125 14V5.25C17.125 3.235 16.015 2.125 14 2.125ZM4 3.375H5.04167V4C5.04167 4.345 5.32167 4.625 5.66667 4.625C6.01167 4.625 6.29167 4.345 6.29167 4V3.375H11.7083V4C11.7083 4.345 11.9883 4.625 12.3333 4.625C12.6783 4.625 12.9583 4.345 12.9583 4V3.375H14C15.3142 3.375 15.875 3.93583 15.875 5.25V5.875H2.125V5.25C2.125 3.93583 2.68583 3.375 4 3.375ZM14 15.875H4C2.68583 15.875 2.125 15.3142 2.125 14V7.125H15.875V14C15.875 15.3142 15.3142 15.875 14 15.875ZM6.51668 9.8333C6.51668 10.2933 6.14418 10.6667 5.68335 10.6667C5.22335 10.6667 4.84574 10.2933 4.84574 9.8333C4.84574 9.3733 5.21501 9 5.67501 9H5.68335C6.14335 9 6.51668 9.3733 6.51668 9.8333ZM9.85 9.8333C9.85 10.2933 9.4775 10.6667 9.0167 10.6667C8.55668 10.6667 8.17908 10.2933 8.17908 9.8333C8.17908 9.3733 8.54834 9 9.0083 9H9.0167C9.4767 9 9.85 9.3733 9.85 9.8333ZM13.1833 9.8333C13.1833 10.2933 12.8108 10.6667 12.35 10.6667C11.89 10.6667 11.5124 10.2933 11.5124 9.8333C11.5124 9.3733 11.8817 9 12.3417 9H12.35C12.81 9 13.1833 9.3733 13.1833 9.8333ZM6.51668 13.1667C6.51668 13.6267 6.14418 14 5.68335 14C5.22335 14 4.84574 13.6267 4.84574 13.1667C4.84574 12.7067 5.21501 12.3333 5.67501 12.3333H5.68335C6.14335 12.3333 6.51668 12.7067 6.51668 13.1667ZM9.85 13.1667C9.85 13.6267 9.4775 14 9.0167 14C8.55668 14 8.17908 13.6267 8.17908 13.1667C8.17908 12.7067 8.54834 12.3333 9.0083 12.3333H9.0167C9.4767 12.3333 9.85 12.7067 9.85 13.1667ZM13.1833 13.1667C13.1833 13.6267 12.8108 14 12.35 14C11.89 14 11.5124 13.6267 11.5124 13.1667C11.5124 12.7067 11.8817 12.3333 12.3417 12.3333H12.35C12.81 12.3333 13.1833 12.7067 13.1833 13.1667Z" fill="#14213D"/>
</svg>
