<svg width="17" height="18" viewBox="0 0 17 18" fill="none" xmlns="http://www.w3.org/2000/svg">
<path d="M6.60417 5.72083C6.93167 5.22667 7.125 4.63583 7.125 4C7.125 2.27667 5.72333 0.875 4 0.875C2.27667 0.875 0.875 2.27667 0.875 4C0.875 5.72333 2.27667 7.125 4 7.125C4.63583 7.125 5.22667 6.93167 5.72083 6.60417L8.11667 9L5.72083 11.3958C5.22667 11.0683 4.63583 10.875 4 10.875C2.27667 10.875 0.875 12.2767 0.875 14C0.875 15.7233 2.27667 17.125 4 17.125C5.72333 17.125 7.125 15.7233 7.125 14C7.125 13.3642 6.93167 12.7733 6.60417 12.2792L9 9.88333L15.225 16.1083C15.3467 16.23 15.5067 16.2917 15.6667 16.2917C15.8267 16.2917 15.9867 16.2308 16.1083 16.1083C16.3525 15.8642 16.3525 15.4683 16.1083 15.2242L6.60417 5.72083ZM4 15.875C2.96583 15.875 2.125 15.0342 2.125 14C2.125 12.9658 2.96583 12.125 4 12.125C4.51667 12.125 4.98416 12.335 5.32416 12.6733L5.32503 12.675L5.32665 12.6758C5.66582 13.015 5.875 13.4833 5.875 14C5.875 15.0342 5.03417 15.875 4 15.875ZM2.125 4C2.125 2.96583 2.96583 2.125 4 2.125C5.03417 2.125 5.875 2.96583 5.875 4C5.875 4.51667 5.66498 4.98416 5.32665 5.32416L5.32503 5.325L5.32416 5.32667C4.98499 5.66501 4.51667 5.875 4 5.875C2.96583 5.875 2.125 5.03417 2.125 4ZM10.6417 7.35833C10.3975 7.11417 10.3975 6.71833 10.6417 6.47416L15.225 1.89083C15.4692 1.64666 15.865 1.64666 16.1092 1.89083C16.3533 2.13499 16.3533 2.53083 16.1092 2.775L11.5258 7.35833C11.4042 7.48 11.2442 7.54167 11.0842 7.54167C10.9242 7.54167 10.7633 7.48083 10.6417 7.35833Z" fill="#999999"/>
</svg>
