<svg width="18" height="16" viewBox="0 0 18 16" fill="none" xmlns="http://www.w3.org/2000/svg">
<path d="M14 0.707031H4C1.985 0.707031 0.875 1.81703 0.875 3.83203V12.1654C0.875 14.1804 1.985 15.2904 4 15.2904H14C16.015 15.2904 17.125 14.1804 17.125 12.1654V3.83203C17.125 1.81703 16.015 0.707031 14 0.707031ZM4 1.95703H14C15.3142 1.95703 15.875 2.51786 15.875 3.83203V5.70703H2.125V3.83203C2.125 2.51786 2.68583 1.95703 4 1.95703ZM10.875 6.95703V14.0404H7.125V6.95703H10.875ZM2.125 12.1654V6.95703H5.875V14.0404H4C2.68583 14.0404 2.125 13.4795 2.125 12.1654ZM14 14.0404H12.125V6.95703H15.875V12.1654C15.875 13.4795 15.3142 14.0404 14 14.0404Z" fill="#999999"/>
</svg>
