<svg width="18" height="18" viewBox="0 0 18 18" fill="none" xmlns="http://www.w3.org/2000/svg">
<path d="M17.9584 8.99984C17.9584 4.05984 13.94 0.0415039 9 0.0415039C4.06002 0.0415039 0.0416899 4.05984 0.0416899 8.99984C0.0416899 11.8915 1.42418 14.4599 3.55752 16.099C3.56085 16.1024 3.56588 16.104 3.56921 16.1074C5.07838 17.2632 6.9575 17.9582 9.0008 17.9582C11.0442 17.9582 12.9234 17.2632 14.4326 16.1074C14.4359 16.104 14.4408 16.1024 14.4442 16.099C16.5758 14.4599 17.9584 11.8915 17.9584 8.99984ZM1.29169 8.99984C1.29169 4.749 4.74919 1.2915 9 1.2915C13.2509 1.2915 16.7084 4.749 16.7084 8.99984C16.7084 11.1023 15.86 13.0099 14.49 14.4016C14.1159 12.8174 12.9183 11.3498 10.425 11.3498H7.57505C5.08172 11.3498 3.88334 12.8174 3.51001 14.4016C2.14001 13.0099 1.29169 11.1023 1.29169 8.99984ZM4.63255 15.3448C4.68088 14.4898 5.07172 12.5998 7.57505 12.5998H10.425C12.9283 12.5998 13.3192 14.4898 13.3675 15.3448C12.125 16.2032 10.6209 16.7082 9 16.7082C7.37919 16.7082 5.87505 16.2023 4.63255 15.3448ZM9.0067 10.4582C10.7292 10.4582 12.1317 9.0565 12.1317 7.33317C12.1317 5.60984 10.7292 4.20817 9.0067 4.20817C7.28423 4.20817 5.88173 5.60984 5.88173 7.33317C5.88173 9.0565 7.2834 10.4582 9.0067 10.4582ZM9.0067 5.45817C10.0401 5.45817 10.8817 6.299 10.8817 7.33317C10.8817 8.36734 10.0401 9.2082 9.0067 9.2082C7.9734 9.2082 7.13173 8.36734 7.13173 7.33317C7.13173 6.299 7.9734 5.45817 9.0067 5.45817Z" fill="#999999"/>
</svg>
