<svg width="18" height="18" viewBox="0 0 18 18" fill="none" xmlns="http://www.w3.org/2000/svg">
<path d="M9.00004 5.875C7.27671 5.875 5.87504 7.27667 5.87504 9C5.87504 10.7233 7.27671 12.125 9.00004 12.125C10.7234 12.125 12.125 10.7233 12.125 9C12.125 7.27667 10.7234 5.875 9.00004 5.875ZM9.00004 10.875C7.96587 10.875 7.12504 10.0342 7.12504 9C7.12504 7.96583 7.96587 7.125 9.00004 7.125C10.0342 7.125 10.875 7.96583 10.875 9C10.875 10.0342 10.0342 10.875 9.00004 10.875ZM16.6734 10.6275C16.095 10.2925 15.735 9.66917 15.7342 9C15.7334 8.3325 16.0909 7.71001 16.6767 7.37084C17.1059 7.12168 17.2525 6.56915 17.0042 6.13915L15.6109 3.73417C15.3626 3.305 14.81 3.15751 14.38 3.40501C13.7975 3.74084 13.0734 3.74084 12.4892 3.40168C11.9134 3.06751 11.555 2.44667 11.555 1.78084C11.555 1.28167 11.1484 0.875839 10.6492 0.875839H7.35336C6.85336 0.875839 6.44755 1.28167 6.44755 1.78084C6.44755 2.44667 6.0892 3.0675 5.5117 3.40333C4.9292 3.74083 4.20587 3.74166 3.62337 3.40582C3.19254 3.15749 2.64088 3.30584 2.39255 3.73501L0.997541 6.14251C0.749207 6.57168 0.896696 7.12332 1.33003 7.37499C1.90753 7.70916 2.26754 8.33166 2.26921 8.99916C2.27087 9.66749 1.91254 10.2917 1.32754 10.6308C1.1192 10.7517 0.969206 10.9458 0.907539 11.1792C0.845872 11.4117 0.877546 11.6542 0.99838 11.8633L2.39087 14.2667C2.6392 14.6967 3.19171 14.8458 3.62337 14.5967C4.20587 14.2608 4.92838 14.2617 5.50255 14.5942L5.5042 14.595C5.5067 14.5967 5.50921 14.5983 5.51254 14.6C6.08837 14.9342 6.44586 15.555 6.44503 16.2217C6.44503 16.7208 6.85086 17.1267 7.35003 17.1267H10.6492C11.1484 17.1267 11.5542 16.7208 11.5542 16.2225C11.5542 15.5558 11.9125 14.935 12.4909 14.5992C13.0725 14.2617 13.7959 14.26 14.3792 14.5967C14.8092 14.845 15.3609 14.6975 15.61 14.2683L17.005 11.8608C17.2525 11.43 17.105 10.8775 16.6734 10.6275ZM14.6925 13.3558C13.7842 12.96 12.73 13.0142 11.8617 13.5167C11.0009 14.0158 10.4325 14.8983 10.3225 15.875H7.67504C7.56671 14.8983 6.9967 14.0142 6.13586 13.5158C5.2692 13.0133 4.21338 12.96 3.30754 13.3558L2.24421 11.52C3.04004 10.9342 3.52086 9.99418 3.51753 8.99418C3.51503 8.00084 3.03504 7.0675 2.24337 6.48166L3.30754 4.64499C4.21421 5.03999 5.27005 4.98666 6.13838 4.48332C6.99838 3.98499 7.56669 3.10167 7.67669 2.12584H10.3225C10.4317 3.10251 11.0009 3.985 11.8634 4.485C12.7292 4.9875 13.785 5.04083 14.6925 4.64583L15.7567 6.48166C14.9625 7.06666 14.4825 8.005 14.4842 9.00333C14.485 9.99833 14.965 10.9333 15.7575 11.5208L14.6925 13.3558Z" fill="#14213D"/>
</svg>
