<svg width="18" height="18" viewBox="0 0 18 18" fill="none" xmlns="http://www.w3.org/2000/svg">
<path d="M9 17.9584C8.93333 17.9584 8.86662 17.9475 8.80245 17.9259C7.47828 17.4842 0.875 14.935 0.875 8.07338V3.16676C0.875 2.86926 1.08502 2.61167 1.37752 2.55417C5.44419 1.74084 6.88588 1.02592 8.71171 0.120089C8.88838 0.0325887 9.12163 0.020992 9.29663 0.108492C11.0958 1.01599 12.5175 1.7325 16.6233 2.55417C16.9158 2.6125 17.1258 2.86926 17.1258 3.16676V8.07419C17.1258 14.9359 10.5225 17.485 9.19836 17.9267C9.13336 17.9475 9.06667 17.9584 9 17.9584ZM2.125 3.67681V8.07338C2.125 13.7942 7.47333 16.1235 9 16.671C10.5267 16.1235 15.875 13.7934 15.875 8.07338V3.67681C12.1892 2.90514 10.6399 2.1825 9.01241 1.365C7.28158 2.22084 5.77917 2.91348 2.125 3.67681ZM9.00509 9.0418C7.90259 9.0418 7.00578 8.14418 7.00578 7.04168C7.00578 5.93918 7.90259 5.04176 9.00509 5.04176C10.1076 5.04176 11.005 5.93918 11.005 7.04168C11.005 8.14418 10.1076 9.0418 9.00509 9.0418ZM9.00509 6.29176C8.59175 6.29176 8.25578 6.62835 8.25578 7.04168C8.25578 7.45501 8.59175 7.7918 9.00509 7.7918C9.41842 7.7918 9.755 7.45501 9.755 7.04168C9.755 6.62835 9.41842 6.29176 9.00509 6.29176ZM11.5 12.9584C11.155 12.9584 10.875 12.6784 10.875 12.3334V12.0809C10.875 11.4809 10.4609 10.8751 9.53508 10.8751H8.46574C7.53991 10.8751 7.12581 11.4809 7.12581 12.0809V12.3334C7.12581 12.6784 6.84581 12.9584 6.50081 12.9584C6.15581 12.9584 5.87581 12.6784 5.87581 12.3334V12.0809C5.87581 10.8609 6.76491 9.62509 8.46574 9.62509H9.53508C11.2359 9.62509 12.125 10.8601 12.125 12.0809V12.3334C12.125 12.6784 11.845 12.9584 11.5 12.9584Z" fill="#14213D"/>
</svg>
